<?xml version="1.0" encoding="UTF-8"?>
<svg id="Layer_2" data-name="Layer 2" xmlns="http://www.w3.org/2000/svg" viewBox="0 0 91.91 97.68">
  <defs>
    <style>
      .cls-1 {
        fill: #fff;
      }
    </style>
  </defs>
  <g id="Layer_2-2" data-name="Layer 2">
    <g id="Layer_1-2" data-name="Layer 1-2">
      <g>
        <path class="cls-1" d="M2.04.08c-.08,0-.15.04-.23.08-.05.03-.08.03-.08,0v.04c-.23.19-.38.45-.38.79,0,.64.3,1.02.9,1.13.6.08,2.45.19,5.54.26,2.64.11,4.52.6,5.65,1.47,1.09.9,2.15,2.67,3.09,5.27l6.82,18.95c1.05,2.94,2,5.76,2.94,8.4,3.5,10.06,6.25,17.89,8.21,23.54,2.34,6.48,5.65,16.12,9.87,28.97.72,2.18,1.39,4.03,1.96,5.54.45,1.17.83,2.11,1.21,2.86,1.05-.08,2.07-.19,3.09-.3.3-1.17.64-2.37,1.02-3.62,4.67-16.12,12.05-38.09,22.11-65.92.3-.87.64-1.73.94-2.6l4.18-11.41c-1.05-1.17-2.18-2.26-3.39-3.24-.83,2.71-2.07,6.55-3.73,11.53-3.8,11.56-9.91,29.12-18.2,52.74-4.22-12.39-7.08-20.83-8.59-25.24-8.97-25.65-13.56-38.84-13.75-39.59l-1.09-3.84c-.15-.57-.26-.94-.26-1.17,0-.38.11-.72.34-.98.41-.57,1.28-.87,2.64-.9l8.55-.3c3.39-.08,5.05-.6,5.05-1.54,0-.11,0-.23-.04-.34L26.46,0c-1.88.08-2.98.11-3.32.11C21.82.11,19.83.08,17.11,0L2.04.08Z"/>
        <path class="cls-1" d="M84.09,20.23c-1.58-2.49-3.28-4.71-5.2-6.71-1.05-1.17-2.18-2.26-3.39-3.24-3.58-3.05-7.61-5.31-12.09-6.78-4.03-1.36-9.72-2.3-16.99-2.86-5.39-.41-11.64-.64-18.84-.64H3.1c-.38,0-.75.04-1.05.08-.08,0-.15.04-.23.08-.05.03-.08.03-.08,0v.04c-.68.11-1.02.45-1.02.94,0,1.02,1.05,1.54,3.24,1.54,4.11,0,6.52.38,7.23,1.09.72.75,1.05,3.43,1.05,8.02v75.76c0,2.94-.19,4.71-.56,5.35-.94,1.39-3.32,2.11-7.16,2.11-3.01,0-4.52.41-4.52,1.28,0,.94.9,1.39,2.67,1.39h38.09c2.34,0,4.6-.11,6.78-.3,1.05-.08,2.07-.19,3.09-.3,9.64-1.24,17.67-4.45,24.03-9.53,11.53-9.23,17.25-22.11,17.25-38.65,0-10.81-2.6-20.34-7.84-28.67h.02ZM66.35,84.01c-4.07,4.71-8.93,7.84-14.69,9.46-1.7.49-3.47.83-5.31,1.05-1.43.15-2.94.23-4.45.23-7.2,0-11.94-.57-14.2-1.7-.64-.38-1.05-.87-1.17-1.43-.15-.56-.23-2.15-.23-4.78V11.83c0-3.84.26-6.1.83-6.78.57-.57,1.58-1.02,3.09-1.32,1.96-.41,4.75-.64,8.33-.64,12.92,0,22.41,3.65,28.52,10.92,1.85,2.18,3.43,4.82,4.71,7.8.79,1.77,1.43,3.69,2,5.73,1.62,5.8,2.45,12.77,2.45,20.79,0,16.27-3.28,28.18-9.87,35.67h0Z"/>
      </g>
    </g>
  </g>
</svg>