<svg width="795" height="100" viewBox="0 0 795 100" fill="none" xmlns="http://www.w3.org/2000/svg">
<path d="M42.8396 31.4645H0.552734V49.9681H41.6903C42.3019 49.9681 42.8012 50.4645 42.8012 51.079V68.2857H92.4742V49.782H43.9505C43.3389 49.782 42.8396 49.2857 42.8396 48.6711V31.4645Z" fill="white"/>
<path d="M0 18.5037H92.3558V0H0.0679521L0 18.5037Z" fill="white"/>
<path d="M0 99.7507H92.3558V81.2471H0.0679521L0 99.7507Z" fill="white"/>
<path d="M732.994 0L751.214 0L794.717 100H769.858L761.242 78.8136L722.401 78.8136L714.067 100H689.773L732.994 0ZM741.468 29.096L729.322 60.1695H753.757L741.468 29.096Z" fill="white"/>
<path d="M603.294 0L671.232 0V20.339L625.328 20.339V38.9831L668.689 38.9831V59.322L625.328 59.322V79.661L673.774 79.661V100L603.294 100V0Z" fill="white"/>
<path d="M492.52 0L522.463 0L564.977 69.4915H565.26V0L587.294 0V100H558.48L514.836 28.8136H514.553V100H492.52V0Z" fill="white"/>
<path d="M406.039 0L473.977 0V20.339L428.073 20.339V38.9831L471.435 38.9831V59.322L428.073 59.322V79.661L476.519 79.661V100L406.039 100V0Z" fill="white"/>
<path d="M297.809 0L330.859 0C338.863 0 346.443 0.894538 353.6 2.68361C360.85 4.47269 367.159 7.39171 372.526 11.4407C377.893 15.3955 382.131 20.5744 385.238 26.9774C388.439 33.3804 390.04 41.1488 390.04 50.2825C390.04 58.3804 388.487 65.5367 385.379 71.7514C382.366 77.8719 378.27 83.0508 373.091 87.2881C367.912 91.4313 361.933 94.5857 355.153 96.7514C348.374 98.9171 341.264 100 333.826 100H297.809V0ZM319.842 79.661H331.283C336.368 79.661 341.076 79.1431 345.407 78.1073C349.833 77.0716 353.647 75.3766 356.848 73.0226C360.05 70.5744 362.545 67.42 364.334 63.5593C366.217 59.6045 367.159 54.8023 367.159 49.1525C367.159 44.2561 366.217 40.0188 364.334 36.4407C362.545 32.7684 360.097 29.7552 356.989 27.4011C353.882 25.0471 350.21 23.3051 345.972 22.1751C341.829 20.951 337.451 20.339 332.837 20.339L319.842 20.339V79.661Z" fill="white"/>
<path d="M218.955 0L240.989 0V79.661L281.808 79.661V100L218.955 100L218.955 0Z" fill="white"/>
<path d="M132.475 0L200.412 0V20.339L154.509 20.339V38.9831L197.87 38.9831V59.322L154.509 59.322V79.661L202.955 79.661V100L132.475 100L132.475 0Z" fill="white"/>
</svg>
