<svg width="470" height="92" viewBox="0 0 470 92" fill="none" xmlns="http://www.w3.org/2000/svg">
<g clip-path="url(#clip0_483_118)">
<path d="M276.028 40.237C270.929 38.1478 263.888 36.7293 254.881 35.9813L235.908 34.5885C230.938 34.2275 227.573 33.5053 225.787 32.422C224.001 31.3388 223.121 29.9202 223.121 28.1405C223.121 25.8193 224.571 24.0396 227.47 22.8274C230.369 21.6152 234.588 20.9962 240.101 20.9962C244.967 20.9962 248.927 21.4862 251.956 22.4663C255.01 23.4464 257.34 24.736 258.97 26.3093C260.601 27.9084 261.611 29.6107 261.999 31.4935H288.556C287.986 25.9998 285.631 21.1767 281.463 17.0758C277.296 12.9749 271.783 9.75086 264.898 7.42959C258.013 5.10831 250.17 3.92188 241.369 3.92188C232.569 3.92188 224.881 4.92776 218.333 6.93954C211.784 8.95131 206.659 11.8916 202.958 15.7604C199.256 19.6292 197.418 24.5039 197.418 30.3845C197.418 34.6659 198.557 38.5605 200.861 41.9908C203.165 45.447 207.021 48.2583 212.457 50.4506C217.893 52.6429 225.192 54.1131 234.355 54.861L248.953 55.9701C254.855 56.4344 258.944 57.1823 261.248 58.214C263.552 59.2457 264.691 60.7416 264.691 62.7018C264.691 65.3068 263.086 67.267 259.902 68.5824C256.718 69.8978 252.033 70.5426 245.847 70.5426C241.266 70.5426 237.28 70.1041 233.915 69.2014C230.55 68.3245 227.806 66.9833 225.71 65.2036C223.613 63.424 222.267 61.3864 221.698 59.0393H195.141C195.425 64.8167 197.625 69.8978 201.741 74.2824C205.857 78.667 211.629 82.0716 219.006 84.496C226.408 86.9205 235.028 88.1327 244.838 88.1327C254.648 88.1327 262.672 87.0494 269.427 84.9087C276.157 82.768 281.308 79.6213 284.802 75.4688C288.323 71.3163 290.083 66.2611 290.083 60.2774C290.083 55.7122 288.996 51.7402 286.847 48.3873C284.699 45.0343 281.075 42.3003 275.95 40.2112L276.028 40.237Z" fill="white" stroke="white" stroke-miterlimit="10"/>
<path d="M424.702 21.1992C410.259 21.1992 398.508 31.5676 398.508 44.3088H409.457C409.457 37.5771 416.29 32.1092 424.676 32.1092C433.063 32.1092 439.896 37.5771 439.896 44.3088H450.845C450.845 31.5676 439.094 21.1992 424.651 21.1992H424.702Z" fill="white" stroke="white" stroke-miterlimit="10"/>
<path d="M424.702 2.14062C400.449 2.14062 380.699 21.8199 380.699 45.987C380.699 70.1541 400.449 89.8334 424.702 89.8334C448.955 89.8334 468.705 70.1541 468.705 45.987C468.705 21.8199 448.955 2.14062 424.702 2.14062ZM424.702 76.9374C407.567 76.9374 393.641 63.0613 393.641 45.987C393.641 28.9127 407.567 15.0366 424.702 15.0366C441.837 15.0366 455.763 28.9127 455.763 45.987C455.763 63.0613 441.837 76.9374 424.702 76.9374Z" fill="white" stroke="white" stroke-miterlimit="10"/>
<path d="M150.333 1.28906C125.588 1.28906 105.477 21.3552 105.477 45.9866C105.477 70.6179 125.614 90.6841 150.333 90.6841C175.053 90.6841 195.19 70.6179 195.19 45.9866C195.19 21.3552 175.078 1.28906 150.333 1.28906ZM150.333 68.3482C137.961 68.3482 127.892 58.3151 127.892 45.9866C127.892 33.658 137.961 23.6249 150.333 23.6249C162.706 23.6249 172.775 33.658 172.775 45.9866C172.775 58.3151 162.706 68.3482 150.333 68.3482Z" fill="white" stroke="white" stroke-miterlimit="10"/>
<path d="M334.86 3.42969H309.467V34.9733H293.652V58.7793H309.39C313.583 79.155 323.937 88.569 342.366 88.569C344.54 88.569 346.844 88.4401 349.251 88.1821C367.292 86.2219 378.655 73.3518 377.542 56.1743L377.309 52.5634H354.402L353.444 55.0652C353.134 55.8648 352.875 56.6385 352.616 57.3865C352.15 58.7793 351.736 59.9915 351.166 60.9716C349.95 63.0865 347.827 65.4336 342.185 64.6856C339.415 64.3246 336.05 63.0865 335.662 59.2693C335.196 54.601 335.3 49.7521 335.403 44.6453C335.403 43.562 335.455 42.453 335.455 41.3181H377.62V17.4863H334.808V3.42969H334.86Z" fill="white" stroke="white" stroke-miterlimit="10"/>
<path d="M85.2863 14.2639C77.9611 8.2286 68.3841 5.21094 56.5033 5.21094C50.2653 5.21094 44.545 6.19103 39.3164 8.17702C34.0879 10.163 29.817 12.8712 26.4521 16.3531V6.37158H1.29297V86.5589H26.478V42.274C26.478 35.9034 28.497 31.0029 32.509 27.5726C36.521 24.1423 42.0084 22.44 48.9711 22.44C55.9339 22.44 61.2142 24.168 65.1486 27.5726C69.1088 31.0029 71.076 35.9034 71.076 42.274V86.5589H96.261V39.5143C96.261 28.7074 92.6114 20.2992 85.2863 14.2639Z" fill="white" stroke="white" stroke-miterlimit="10"/>
</g>
<defs>
<clipPath id="clip0_483_118">
<rect width="470" height="92" fill="white"/>
</clipPath>
</defs>
</svg>
