<svg width="214" height="63" viewBox="0 0 214 63" fill="none" xmlns="http://www.w3.org/2000/svg">
<mask id="path-1-outside-1_483_108" maskUnits="userSpaceOnUse" x="1" y="0" width="127" height="38" fill="black">
<rect fill="white" x="1" width="127" height="38"/>
<path d="M4.45751 29H1.8573L1.8573 2.99785L12.6668 2.99785C14.1774 2.99785 15.5394 3.33217 16.7528 4.00079C17.9662 4.64466 18.9197 5.56092 19.613 6.74959C20.3064 7.93826 20.6531 9.2879 20.6531 10.7985C20.6531 12.4329 20.1826 13.8816 19.2416 15.1446C18.3253 16.4075 17.149 17.3362 15.7127 17.9305V18.302L17.05 19.7878L21.7304 28.8143V29H18.9816L13.744 18.5991H4.45751L4.45751 29ZM12.2582 16.1847C13.8926 16.1847 15.267 15.7018 16.3814 14.736C17.4957 13.7454 18.0529 12.4329 18.0529 10.7985C18.0529 9.16408 17.4957 7.86397 16.3814 6.89817C15.267 5.90762 13.8926 5.41234 12.2582 5.41234L4.45751 5.41234L4.45751 16.1847H12.2582ZM34.813 29.5572C32.8566 29.5572 31.1355 29.1238 29.6497 28.2571C28.1886 27.3903 27.0619 26.2141 26.2694 24.7282C25.477 23.2176 25.0808 21.5461 25.0808 19.7135C25.0808 17.9058 25.4646 16.2589 26.2323 14.7731C27.0247 13.2625 28.1267 12.0738 29.5383 11.2071C30.9746 10.3156 32.609 9.86985 34.4415 9.86985C36.2741 9.86985 37.8961 10.3156 39.3076 11.2071C40.7192 12.0738 41.8088 13.2625 42.5765 14.7731C43.3689 16.2837 43.7652 17.9429 43.7652 19.7507C43.7652 19.9983 43.7404 20.3698 43.6909 20.865L27.6438 20.865C27.8667 22.7719 28.5972 24.332 29.8354 25.5454C31.0984 26.7341 32.7576 27.3284 34.813 27.3284C36.4969 27.3284 37.8961 26.9198 39.0105 26.1026C40.1249 25.2854 40.9668 24.171 41.5364 22.7595L43.6537 23.8367C42.886 25.595 41.7593 26.9941 40.2734 28.0342C38.7876 29.0495 36.9675 29.5572 34.813 29.5572ZM41.2764 18.6363C41.0535 16.7295 40.3353 15.1693 39.1219 13.9559C37.9085 12.7177 36.3484 12.0986 34.4415 12.0986C32.5347 12.0986 30.9746 12.7177 29.7611 13.9559C28.5477 15.1693 27.8419 16.7295 27.6438 18.6363H41.2764ZM55.5691 29.5572C54.2814 29.5572 53.167 29.3219 52.226 28.8514C51.285 28.3561 50.5668 27.7123 50.0715 26.9198C49.5763 26.1026 49.3286 25.2235 49.3286 24.2825C49.3286 22.4004 49.9725 21.0508 51.2602 20.2336C52.5479 19.3916 54.3557 18.8963 56.6835 18.7477C58.1694 18.6487 59.2837 18.5372 60.0267 18.4134C60.7696 18.2896 61.3887 18.0296 61.8839 17.6333C62.3792 17.2124 62.6269 16.5685 62.6269 15.7018C62.6269 14.5874 62.1811 13.7083 61.2896 13.0644C60.4229 12.4205 59.3952 12.0986 58.2065 12.0986C56.5968 12.0986 55.3091 12.4948 54.3433 13.2873C53.4023 14.055 52.7213 15.0703 52.3003 16.3332L50.0344 15.4789C50.6535 13.8197 51.6317 12.4701 52.9689 11.43C54.3309 10.3899 56.0768 9.86985 58.2065 9.86985C59.4447 9.86985 60.5838 10.1175 61.6239 10.6128C62.664 11.108 63.4936 11.8386 64.1127 12.8044C64.7566 13.7702 65.0785 14.9217 65.0785 16.2589V21.1994L66.1929 28.8143V29H63.7412L63.4441 26.8827L63.3698 24.8397H62.9983L61.9211 26.8827C61.1534 27.7247 60.2248 28.3809 59.1352 28.8514C58.0455 29.3219 56.8569 29.5572 55.5691 29.5572ZM51.8174 24.0967C51.8174 25.0625 52.2012 25.8426 52.9689 26.4369C53.7366 27.0313 54.7519 27.3284 56.0149 27.3284C57.3521 27.3284 58.5161 27.0436 59.5066 26.4741C60.4972 25.9045 61.2648 25.1244 61.8097 24.1339C62.3545 23.1433 62.6269 22.0413 62.6269 20.8279V19.2306C62.0325 19.7507 61.2772 20.1221 60.361 20.345C59.4447 20.5679 58.2189 20.7165 56.6835 20.7908C55.0739 20.8898 53.8604 21.1994 53.0432 21.7194C52.226 22.2394 51.8174 23.0319 51.8174 24.0967ZM72.5056 28.9629V0.769096L74.9573 0.769096L74.9201 29L72.5056 28.9629ZM82.6944 10.427H85.146V29H82.6944V10.427ZM81.4686 4.48369C81.4686 3.81506 81.7038 3.24549 82.1743 2.77498C82.6448 2.30446 83.2268 2.0692 83.9202 2.0692C84.5888 2.0692 85.1584 2.30446 85.6289 2.77498C86.0994 3.24549 86.3347 3.81506 86.3347 4.48369C86.3347 5.17708 86.0994 5.75903 85.6289 6.22955C85.1584 6.70006 84.5888 6.93532 83.9202 6.93532C83.2268 6.93532 82.6448 6.70006 82.1743 6.22955C81.7038 5.75903 81.4686 5.17708 81.4686 4.48369ZM95.452 29V12.6186L90.9945 12.6186V10.427H95.452V4.59513L97.9036 4.59513V10.427L103.624 10.427V12.6186H97.9036L97.8664 26.8084L103.996 26.8084V29L95.452 29ZM112.962 36.2435L116.417 28.2571L108.468 10.6128V10.427H111.291L116.974 23.5767L117.605 25.8055H117.977L118.571 23.5767L124.069 10.427L126.818 10.427V10.6128L115.525 36.4292H112.962V36.2435Z"/>
</mask>
<path d="M4.45751 29H1.8573L1.8573 2.99785L12.6668 2.99785C14.1774 2.99785 15.5394 3.33217 16.7528 4.00079C17.9662 4.64466 18.9197 5.56092 19.613 6.74959C20.3064 7.93826 20.6531 9.2879 20.6531 10.7985C20.6531 12.4329 20.1826 13.8816 19.2416 15.1446C18.3253 16.4075 17.149 17.3362 15.7127 17.9305V18.302L17.05 19.7878L21.7304 28.8143V29H18.9816L13.744 18.5991H4.45751L4.45751 29ZM12.2582 16.1847C13.8926 16.1847 15.267 15.7018 16.3814 14.736C17.4957 13.7454 18.0529 12.4329 18.0529 10.7985C18.0529 9.16408 17.4957 7.86397 16.3814 6.89817C15.267 5.90762 13.8926 5.41234 12.2582 5.41234L4.45751 5.41234L4.45751 16.1847H12.2582ZM34.813 29.5572C32.8566 29.5572 31.1355 29.1238 29.6497 28.2571C28.1886 27.3903 27.0619 26.2141 26.2694 24.7282C25.477 23.2176 25.0808 21.5461 25.0808 19.7135C25.0808 17.9058 25.4646 16.2589 26.2323 14.7731C27.0247 13.2625 28.1267 12.0738 29.5383 11.2071C30.9746 10.3156 32.609 9.86985 34.4415 9.86985C36.2741 9.86985 37.8961 10.3156 39.3076 11.2071C40.7192 12.0738 41.8088 13.2625 42.5765 14.7731C43.3689 16.2837 43.7652 17.9429 43.7652 19.7507C43.7652 19.9983 43.7404 20.3698 43.6909 20.865L27.6438 20.865C27.8667 22.7719 28.5972 24.332 29.8354 25.5454C31.0984 26.7341 32.7576 27.3284 34.813 27.3284C36.4969 27.3284 37.8961 26.9198 39.0105 26.1026C40.1249 25.2854 40.9668 24.171 41.5364 22.7595L43.6537 23.8367C42.886 25.595 41.7593 26.9941 40.2734 28.0342C38.7876 29.0495 36.9675 29.5572 34.813 29.5572ZM41.2764 18.6363C41.0535 16.7295 40.3353 15.1693 39.1219 13.9559C37.9085 12.7177 36.3484 12.0986 34.4415 12.0986C32.5347 12.0986 30.9746 12.7177 29.7611 13.9559C28.5477 15.1693 27.8419 16.7295 27.6438 18.6363H41.2764ZM55.5691 29.5572C54.2814 29.5572 53.167 29.3219 52.226 28.8514C51.285 28.3561 50.5668 27.7123 50.0715 26.9198C49.5763 26.1026 49.3286 25.2235 49.3286 24.2825C49.3286 22.4004 49.9725 21.0508 51.2602 20.2336C52.5479 19.3916 54.3557 18.8963 56.6835 18.7477C58.1694 18.6487 59.2837 18.5372 60.0267 18.4134C60.7696 18.2896 61.3887 18.0296 61.8839 17.6333C62.3792 17.2124 62.6269 16.5685 62.6269 15.7018C62.6269 14.5874 62.1811 13.7083 61.2896 13.0644C60.4229 12.4205 59.3952 12.0986 58.2065 12.0986C56.5968 12.0986 55.3091 12.4948 54.3433 13.2873C53.4023 14.055 52.7213 15.0703 52.3003 16.3332L50.0344 15.4789C50.6535 13.8197 51.6317 12.4701 52.9689 11.43C54.3309 10.3899 56.0768 9.86985 58.2065 9.86985C59.4447 9.86985 60.5838 10.1175 61.6239 10.6128C62.664 11.108 63.4936 11.8386 64.1127 12.8044C64.7566 13.7702 65.0785 14.9217 65.0785 16.2589V21.1994L66.1929 28.8143V29H63.7412L63.4441 26.8827L63.3698 24.8397H62.9983L61.9211 26.8827C61.1534 27.7247 60.2248 28.3809 59.1352 28.8514C58.0455 29.3219 56.8569 29.5572 55.5691 29.5572ZM51.8174 24.0967C51.8174 25.0625 52.2012 25.8426 52.9689 26.4369C53.7366 27.0313 54.7519 27.3284 56.0149 27.3284C57.3521 27.3284 58.5161 27.0436 59.5066 26.4741C60.4972 25.9045 61.2648 25.1244 61.8097 24.1339C62.3545 23.1433 62.6269 22.0413 62.6269 20.8279V19.2306C62.0325 19.7507 61.2772 20.1221 60.361 20.345C59.4447 20.5679 58.2189 20.7165 56.6835 20.7908C55.0739 20.8898 53.8604 21.1994 53.0432 21.7194C52.226 22.2394 51.8174 23.0319 51.8174 24.0967ZM72.5056 28.9629V0.769096L74.9573 0.769096L74.9201 29L72.5056 28.9629ZM82.6944 10.427H85.146V29H82.6944V10.427ZM81.4686 4.48369C81.4686 3.81506 81.7038 3.24549 82.1743 2.77498C82.6448 2.30446 83.2268 2.0692 83.9202 2.0692C84.5888 2.0692 85.1584 2.30446 85.6289 2.77498C86.0994 3.24549 86.3347 3.81506 86.3347 4.48369C86.3347 5.17708 86.0994 5.75903 85.6289 6.22955C85.1584 6.70006 84.5888 6.93532 83.9202 6.93532C83.2268 6.93532 82.6448 6.70006 82.1743 6.22955C81.7038 5.75903 81.4686 5.17708 81.4686 4.48369ZM95.452 29V12.6186L90.9945 12.6186V10.427H95.452V4.59513L97.9036 4.59513V10.427L103.624 10.427V12.6186H97.9036L97.8664 26.8084L103.996 26.8084V29L95.452 29ZM112.962 36.2435L116.417 28.2571L108.468 10.6128V10.427H111.291L116.974 23.5767L117.605 25.8055H117.977L118.571 23.5767L124.069 10.427L126.818 10.427V10.6128L115.525 36.4292H112.962V36.2435Z" fill="white"/>
<path d="M4.45751 29V29.6311H5.0886V29H4.45751ZM1.8573 29H1.22621V29.6311H1.8573V29ZM1.8573 2.99785V2.36676L1.22621 2.36676V2.99785L1.8573 2.99785ZM16.7528 4.00079L16.4482 4.55359L16.457 4.55826L16.7528 4.00079ZM19.613 6.74959L19.0679 7.06758L19.0679 7.06758L19.613 6.74959ZM19.2416 15.1446L18.7355 14.7675L18.7308 14.774L19.2416 15.1446ZM15.7127 17.9305L15.4714 17.3474L15.0816 17.5087V17.9305H15.7127ZM15.7127 18.302H15.0816V18.5441L15.2436 18.7241L15.7127 18.302ZM17.05 19.7878L17.6102 19.4973L17.5731 19.4256L17.5191 19.3656L17.05 19.7878ZM21.7304 28.8143H22.3615V28.6604L22.2906 28.5238L21.7304 28.8143ZM21.7304 29V29.6311H22.3615V29H21.7304ZM18.9816 29L18.4179 29.2838L18.5928 29.6311H18.9816V29ZM13.744 18.5991L14.3076 18.3153L14.1328 17.9681H13.744V18.5991ZM4.45751 18.5991V17.9681H3.82642L3.82642 18.5991H4.45751ZM16.3814 14.736L16.7947 15.2129L16.8006 15.2076L16.3814 14.736ZM16.3814 6.89817L15.962 7.36989L15.968 7.37508L16.3814 6.89817ZM4.45751 5.41234V4.78125H3.82642V5.41234L4.45751 5.41234ZM4.45751 16.1847H3.82642V16.8157H4.45751L4.45751 16.1847ZM4.45751 29V28.3689H1.8573L1.8573 29V29.6311H4.45751V29ZM1.8573 29H2.48839L2.48839 2.99785H1.8573L1.22621 2.99785L1.22621 29H1.8573ZM1.8573 2.99785V3.62894L12.6668 3.62894V2.99785V2.36676L1.8573 2.36676V2.99785ZM12.6668 2.99785V3.62894C14.0807 3.62894 15.3364 3.94086 16.4482 4.55352L16.7528 4.00079L17.0574 3.44806C15.7424 2.72347 14.274 2.36676 12.6668 2.36676V2.99785ZM16.7528 4.00079L16.457 4.55826C17.5665 5.14696 18.4336 5.9802 19.0679 7.06758L19.613 6.74959L20.1582 6.4316C19.4057 5.14165 18.366 4.14235 17.0486 3.44332L16.7528 4.00079ZM19.613 6.74959L19.0679 7.06758C19.6996 8.15047 20.022 9.3884 20.022 10.7985H20.6531H21.2842C21.2842 9.18739 20.9133 7.72605 20.1582 6.4316L19.613 6.74959ZM20.6531 10.7985H20.022C20.022 12.3025 19.5922 13.6178 18.7355 14.7675L19.2416 15.1446L19.7476 15.5216C20.7731 14.1454 21.2842 12.5633 21.2842 10.7985H20.6531ZM19.2416 15.1446L18.7308 14.774C17.8827 15.9429 16.7996 16.7978 15.4714 17.3474L15.7127 17.9305L15.954 18.5137C17.4985 17.8746 18.7679 16.8721 19.7524 15.5152L19.2416 15.1446ZM15.7127 17.9305H15.0816V18.302H15.7127H16.3438V17.9305H15.7127ZM15.7127 18.302L15.2436 18.7241L16.5809 20.21L17.05 19.7878L17.5191 19.3656L16.1818 17.8798L15.7127 18.302ZM17.05 19.7878L16.4897 20.0783L21.1701 29.1048L21.7304 28.8143L22.2906 28.5238L17.6102 19.4973L17.05 19.7878ZM21.7304 28.8143H21.0993V29H21.7304H22.3615V28.8143H21.7304ZM21.7304 29V28.3689H18.9816V29V29.6311H21.7304V29ZM18.9816 29L19.5452 28.7162L14.3076 18.3153L13.744 18.5991L13.1803 18.883L18.4179 29.2838L18.9816 29ZM13.744 18.5991V17.9681H4.45751V18.5991V19.2302L13.744 19.2302V18.5991ZM4.45751 18.5991H3.82642L3.82642 29H4.45751H5.0886L5.0886 18.5991H4.45751ZM12.2582 16.1847V16.8157C14.0268 16.8157 15.5529 16.2891 16.7947 15.2129L16.3814 14.736L15.968 14.2591C14.9811 15.1144 13.7584 15.5536 12.2582 15.5536V16.1847ZM16.3814 14.736L16.8006 15.2076C18.0636 14.085 18.684 12.5937 18.684 10.7985H18.0529H17.4218C17.4218 12.2721 16.9278 13.4058 15.9621 14.2643L16.3814 14.736ZM18.0529 10.7985H18.684C18.684 9.00331 18.0633 7.52078 16.7947 6.42127L16.3814 6.89817L15.968 7.37508C16.9281 8.20716 17.4218 9.32484 17.4218 10.7985H18.0529ZM16.3814 6.89817L16.8006 6.42649C15.5593 5.32305 14.0311 4.78125 12.2582 4.78125V5.41234V6.04343C13.7541 6.04343 14.9747 6.49218 15.9621 7.36986L16.3814 6.89817ZM12.2582 5.41234V4.78125L4.45751 4.78125V5.41234L4.45751 6.04343L12.2582 6.04343V5.41234ZM4.45751 5.41234L3.82642 5.41234L3.82642 16.1847H4.45751H5.0886L5.0886 5.41234H4.45751ZM4.45751 16.1847L4.45751 16.8157H12.2582V16.1847V15.5536L4.45751 15.5536V16.1847ZM29.6497 28.2571L29.3277 28.7999L29.3317 28.8022L29.6497 28.2571ZM26.2694 24.7282L25.7106 25.0214L25.7126 25.0252L26.2694 24.7282ZM26.2323 14.7731L25.6734 14.4799L25.6716 14.4834L26.2323 14.7731ZM29.5383 11.2071L29.8685 11.7449L29.8711 11.7433L29.5383 11.2071ZM39.3076 11.2071L38.9706 11.7407L38.9774 11.7449L39.3076 11.2071ZM42.5765 14.7731L42.0138 15.059L42.0176 15.0663L42.5765 14.7731ZM43.6909 20.865V21.4961H44.262L44.3188 20.9278L43.6909 20.865ZM27.6438 20.865V20.234H26.9347L27.017 20.9383L27.6438 20.865ZM29.8354 25.5454L29.3936 25.9963L29.4029 26.005L29.8354 25.5454ZM39.0105 26.1026L39.3837 26.6115L39.3837 26.6115L39.0105 26.1026ZM41.5364 22.7595L41.8226 22.197L41.2088 21.8848L40.9512 22.5233L41.5364 22.7595ZM43.6537 23.8367L44.2321 24.0892L44.4701 23.544L43.9399 23.2742L43.6537 23.8367ZM40.2734 28.0342L40.6295 28.5553L40.6353 28.5512L40.2734 28.0342ZM41.2764 18.6363V19.2674H41.9855L41.9032 18.563L41.2764 18.6363ZM39.1219 13.9559L38.6712 14.3976L38.6757 14.4021L39.1219 13.9559ZM29.7611 13.9559L30.2074 14.4022L30.2119 14.3976L29.7611 13.9559ZM27.6438 18.6363L27.0161 18.5711L26.9438 19.2674H27.6438V18.6363ZM34.813 29.5572V28.9261C32.9527 28.9261 31.3444 28.515 29.9677 27.712L29.6497 28.2571L29.3317 28.8022C30.9267 29.7326 32.7605 30.1883 34.813 30.1883V29.5572ZM29.6497 28.2571L29.9717 27.7143C28.609 26.9059 27.5639 25.8143 26.8263 24.4312L26.2694 24.7282L25.7126 25.0252C26.5599 26.6139 27.7683 27.8748 29.3277 28.7999L29.6497 28.2571ZM26.2694 24.7282L26.8283 24.435C26.0868 23.0215 25.7118 21.4517 25.7118 19.7135H25.0808H24.4497C24.4497 21.6404 24.8672 23.4137 25.7106 25.0214L26.2694 24.7282ZM25.0808 19.7135H25.7118C25.7118 17.9982 26.0752 16.4519 26.793 15.0628L26.2323 14.7731L25.6716 14.4834C24.854 16.0659 24.4497 17.8133 24.4497 19.7135H25.0808ZM26.2323 14.7731L26.7911 15.0663C27.5324 13.6532 28.5568 12.5503 29.8685 11.7449L29.5383 11.2071L29.208 10.6693C27.6967 11.5973 26.517 12.8718 25.6734 14.4799L26.2323 14.7731ZM29.5383 11.2071L29.8711 11.7433C31.1991 10.919 32.7163 10.5009 34.4415 10.5009V9.86985V9.23876C32.5016 9.23876 30.7501 9.71218 29.2055 10.6709L29.5383 11.2071ZM34.4415 9.86985V10.5009C36.1668 10.5009 37.6697 10.919 38.9706 11.7407L39.3076 11.2071L39.6446 10.6735C38.1225 9.71217 36.3813 9.23876 34.4415 9.23876V9.86985ZM39.3076 11.2071L38.9774 11.7449C40.2874 12.5493 41.2977 13.6497 42.0139 15.059L42.5765 14.7731L43.1391 14.4872C42.3199 12.8753 41.151 11.5984 39.6379 10.6693L39.3076 11.2071ZM42.5765 14.7731L42.0176 15.0663C42.7598 16.481 43.1341 18.0387 43.1341 19.7507H43.7652H44.3962C44.3962 17.8471 43.9781 16.0864 43.1353 14.4799L42.5765 14.7731ZM43.7652 19.7507H43.1341C43.1341 19.9656 43.112 20.3115 43.0629 20.8022L43.6909 20.865L44.3188 20.9278C44.3688 20.4281 44.3962 20.031 44.3962 19.7507H43.7652ZM43.6909 20.865V20.234L27.6438 20.234V20.865V21.4961L43.6909 21.4961V20.865ZM27.6438 20.865L27.017 20.9383C27.2547 22.9721 28.0413 24.6708 29.3937 25.9962L29.8354 25.5454L30.2772 25.0947C29.1532 23.9932 28.4787 22.5717 28.2706 20.7918L27.6438 20.865ZM29.8354 25.5454L29.4029 26.005C30.8041 27.3238 32.6285 27.9595 34.813 27.9595V27.3284V26.6973C32.8867 26.6973 31.3927 26.1444 30.268 25.0859L29.8354 25.5454ZM34.813 27.3284V27.9595C36.6012 27.9595 38.1392 27.5242 39.3837 26.6115L39.0105 26.1026L38.6373 25.5937C37.653 26.3155 36.3927 26.6973 34.813 26.6973V27.3284ZM39.0105 26.1026L39.3837 26.6115C40.6022 25.718 41.5127 24.5046 42.1216 22.9956L41.5364 22.7595L40.9512 22.5233C40.4209 23.8374 39.6475 24.8529 38.6373 25.5937L39.0105 26.1026ZM41.5364 22.7595L41.2502 23.322L43.3675 24.3992L43.6537 23.8367L43.9399 23.2742L41.8226 22.197L41.5364 22.7595ZM43.6537 23.8367L43.0754 23.5842C42.3513 25.2425 41.2967 26.5476 39.9115 27.5172L40.2734 28.0342L40.6353 28.5512C42.2219 27.4406 43.4207 25.9475 44.2321 24.0892L43.6537 23.8367ZM40.2734 28.0342L39.9174 27.5132C38.5557 28.4436 36.8659 28.9261 34.813 28.9261V29.5572V30.1883C37.069 30.1883 39.0195 29.6554 40.6295 28.5553L40.2734 28.0342ZM41.2764 18.6363L41.9032 18.563C41.6659 16.5328 40.894 14.8355 39.5682 13.5097L39.1219 13.9559L38.6757 14.4021C39.7767 15.5032 40.4411 16.9261 40.6496 18.7096L41.2764 18.6363ZM39.1219 13.9559L39.5726 13.5142C38.2281 12.1421 36.4993 11.4675 34.4415 11.4675V12.0986V12.7297C36.1974 12.7297 37.5889 13.2933 38.6712 14.3976L39.1219 13.9559ZM34.4415 12.0986V11.4675C32.3838 11.4675 30.655 12.1421 29.3104 13.5142L29.7611 13.9559L30.2119 14.3976C31.2941 13.2933 32.6856 12.7297 34.4415 12.7297V12.0986ZM29.7611 13.9559L29.3149 13.5097C27.987 14.8376 27.2273 16.5381 27.0161 18.5711L27.6438 18.6363L28.2715 18.7015C28.4565 16.9208 29.1084 15.5011 30.2074 14.4021L29.7611 13.9559ZM27.6438 18.6363V19.2674L41.2764 19.2674V18.6363V18.0052H27.6438V18.6363ZM52.226 28.8514L51.932 29.41L51.9438 29.4159L52.226 28.8514ZM50.0715 26.9198L49.5318 27.247L49.5364 27.2543L50.0715 26.9198ZM51.2602 20.2336L51.5984 20.7665L51.6056 20.7618L51.2602 20.2336ZM56.6835 18.7477L56.7237 19.3775L56.7255 19.3774L56.6835 18.7477ZM60.0267 18.4134L59.9229 17.7909L59.9229 17.7909L60.0267 18.4134ZM61.8839 17.6333L62.2782 18.1261L62.2855 18.1203L62.2927 18.1142L61.8839 17.6333ZM61.2896 13.0644L60.9132 13.571L60.9201 13.576L61.2896 13.0644ZM54.3433 13.2873L54.7423 13.7763L54.7436 13.7752L54.3433 13.2873ZM52.3003 16.3332L52.0776 16.9237L52.6915 17.1552L52.899 16.5328L52.3003 16.3332ZM50.0344 15.4789L49.4431 15.2583L49.2233 15.8475L49.8117 16.0694L50.0344 15.4789ZM52.9689 11.43L52.5859 10.9284L52.5815 10.9318L52.9689 11.43ZM61.6239 10.6128L61.3526 11.1826L61.6239 10.6128ZM64.1127 12.8044L63.5813 13.145L63.5876 13.1544L64.1127 12.8044ZM65.0785 21.1994H64.4474V21.2453L64.4541 21.2907L65.0785 21.1994ZM66.1929 28.8143H66.824V28.7683L66.8173 28.7229L66.1929 28.8143ZM66.1929 29V29.6311H66.824V29H66.1929ZM63.7412 29L63.1163 29.0877L63.1925 29.6311H63.7412V29ZM63.4441 26.8827L62.8134 26.9056L62.8146 26.9382L62.8191 26.9704L63.4441 26.8827ZM63.3698 24.8397L64.0005 24.8167L63.9783 24.2086H63.3698V24.8397ZM62.9983 24.8397V24.2086H62.6176L62.4401 24.5453L62.9983 24.8397ZM61.9211 26.8827L62.3874 27.3079L62.4417 27.2483L62.4793 27.177L61.9211 26.8827ZM59.1352 28.8514L59.3853 29.4308L59.1352 28.8514ZM52.9689 26.4369L53.3553 25.9379L53.3553 25.9379L52.9689 26.4369ZM61.8097 24.1339L61.2567 23.8297L61.2567 23.8297L61.8097 24.1339ZM62.6269 19.2306H63.258V17.8398L62.2113 18.7557L62.6269 19.2306ZM56.6835 20.7908L56.653 20.1603L56.6448 20.1609L56.6835 20.7908ZM53.0432 21.7194L52.7044 21.187L52.7044 21.187L53.0432 21.7194ZM55.5691 29.5572V28.9261C54.3578 28.9261 53.3442 28.7049 52.5082 28.287L52.226 28.8514L51.9438 29.4159C52.9899 29.9389 54.205 30.1883 55.5691 30.1883V29.5572ZM52.226 28.8514L52.5199 28.293C51.6638 27.8424 51.035 27.2706 50.6067 26.5854L50.0715 26.9198L49.5364 27.2543C50.0986 28.1539 50.9061 28.8699 51.9321 29.4099L52.226 28.8514ZM50.0715 26.9198L50.6113 26.5927C50.1748 25.8725 49.9597 25.1063 49.9597 24.2825H49.3286H48.6975C48.6975 25.3407 48.9778 26.3327 49.5318 27.2469L50.0715 26.9198ZM49.3286 24.2825H49.9597C49.9597 22.5584 50.5372 21.4398 51.5984 20.7664L51.2602 20.2336L50.9221 19.7007C49.4077 20.6617 48.6975 22.2425 48.6975 24.2825H49.3286ZM51.2602 20.2336L51.6056 20.7618C52.7668 20.0025 54.453 19.5225 56.7237 19.3775L56.6835 18.7477L56.6433 18.1179C54.2584 18.2701 52.3291 18.7807 50.9149 19.7054L51.2602 20.2336ZM56.6835 18.7477L56.7255 19.3774C58.2162 19.278 59.3558 19.165 60.1304 19.0359L60.0267 18.4134L59.9229 17.7909C59.2117 17.9094 58.1225 18.0193 56.6415 18.118L56.6835 18.7477ZM60.0267 18.4134L60.1304 19.0359C60.9597 18.8977 61.6842 18.6013 62.2782 18.1261L61.8839 17.6333L61.4897 17.1405C61.0931 17.4578 60.5795 17.6815 59.9229 17.7909L60.0267 18.4134ZM61.8839 17.6333L62.2927 18.1142C62.9723 17.5365 63.258 16.6882 63.258 15.7018H62.6269H61.9958C61.9958 16.4488 61.7862 16.8882 61.4752 17.1525L61.8839 17.6333ZM62.6269 15.7018H63.258C63.258 14.3879 62.7175 13.3172 61.6591 12.5528L61.2896 13.0644L60.9201 13.576C61.6448 14.0994 61.9958 14.7868 61.9958 15.7018H62.6269ZM61.2896 13.0644L61.6659 12.5578C60.6794 11.8249 59.5163 11.4675 58.2065 11.4675V12.0986V12.7297C59.274 12.7297 60.1664 13.0162 60.9133 13.571L61.2896 13.0644ZM58.2065 12.0986V11.4675C56.4937 11.4675 55.0508 11.8904 53.943 12.7994L54.3433 13.2873L54.7436 13.7752C55.5674 13.0992 56.7 12.7297 58.2065 12.7297V12.0986ZM54.3433 13.2873L53.9444 12.7983C52.9019 13.6488 52.1566 14.7686 51.7016 16.1337L52.3003 16.3332L52.899 16.5328C53.2859 15.372 53.9027 14.4612 54.7423 13.7763L54.3433 13.2873ZM52.3003 16.3332L52.523 15.7427L50.257 14.8884L50.0344 15.4789L49.8117 16.0694L52.0776 16.9237L52.3003 16.3332ZM50.0344 15.4789L50.6257 15.6995C51.2058 14.1447 52.1158 12.893 53.3564 11.9281L52.9689 11.43L52.5815 10.9318C51.1476 12.0471 50.1012 13.4947 49.4431 15.2583L50.0344 15.4789ZM52.9689 11.43L53.3519 11.9315C54.5795 10.9941 56.181 10.5009 58.2065 10.5009V9.86985V9.23876C55.9726 9.23876 54.0824 9.78566 52.5859 10.9284L52.9689 11.43ZM58.2065 9.86985V10.5009C59.358 10.5009 60.4035 10.7306 61.3526 11.1826L61.6239 10.6128L61.8953 10.043C60.7642 9.50437 59.5314 9.23876 58.2065 9.23876V9.86985ZM61.6239 10.6128L61.3526 11.1826C62.2868 11.6274 63.0262 12.2788 63.5814 13.145L64.1127 12.8044L64.644 12.4638C63.9611 11.3984 63.0412 10.5887 61.8953 10.043L61.6239 10.6128ZM64.1127 12.8044L63.5876 13.1544C64.1523 14.0015 64.4474 15.0268 64.4474 16.2589H65.0785H65.7096C65.7096 14.8166 65.3608 13.5389 64.6378 12.4543L64.1127 12.8044ZM65.0785 16.2589H64.4474V21.1994H65.0785H65.7096V16.2589H65.0785ZM65.0785 21.1994L64.4541 21.2907L65.5684 28.9057L66.1929 28.8143L66.8173 28.7229L65.7029 21.108L65.0785 21.1994ZM66.1929 28.8143H65.5618V29H66.1929H66.824V28.8143H66.1929ZM66.1929 29V28.3689H63.7412V29V29.6311H66.1929V29ZM63.7412 29L64.3662 28.9123L64.069 26.795L63.4441 26.8827L62.8191 26.9704L63.1163 29.0877L63.7412 29ZM63.4441 26.8827L64.0747 26.8597L64.0005 24.8167L63.3698 24.8397L62.7391 24.8626L62.8134 26.9056L63.4441 26.8827ZM63.3698 24.8397V24.2086H62.9983V24.8397L62.9983 25.4707H63.3698L63.3698 24.8397ZM62.9983 24.8397L62.4401 24.5453L61.3629 26.5883L61.9211 26.8827L62.4793 27.177L63.5566 25.134L62.9983 24.8397ZM61.9211 26.8827L61.4547 26.4575C60.7499 27.2306 59.8959 27.8355 58.885 28.272L59.1352 28.8514L59.3853 29.4308C60.5536 28.9263 61.5569 28.2188 62.3874 27.3079L61.9211 26.8827ZM59.1352 28.8514L58.885 28.272C57.8809 28.7056 56.7782 28.9261 55.5691 28.9261V29.5572V30.1883C56.9355 30.1883 58.2102 29.9382 59.3853 29.4308L59.1352 28.8514ZM51.8174 24.0967H51.1863C51.1863 25.259 51.6615 26.2228 52.5826 26.9359L52.9689 26.4369L53.3553 25.9379C52.741 25.4624 52.4485 24.8661 52.4485 24.0967H51.8174ZM52.9689 26.4369L52.5826 26.9359C53.4902 27.6386 54.6544 27.9595 56.0149 27.9595V27.3284V26.6973C54.8495 26.6973 53.983 26.4239 53.3553 25.9379L52.9689 26.4369ZM56.0149 27.3284V27.9595C57.4436 27.9595 58.7197 27.6545 59.8212 27.0212L59.5066 26.4741L59.192 25.927C58.3124 26.4328 57.2607 26.6973 56.0149 26.6973V27.3284ZM59.5066 26.4741L59.8212 27.0212C60.9108 26.3946 61.7615 25.531 62.3626 24.438L61.8097 24.1339L61.2567 23.8297C60.7682 24.7179 60.0835 25.4144 59.192 25.927L59.5066 26.4741ZM61.8097 24.1339L62.3626 24.438C62.9624 23.3475 63.258 22.1396 63.258 20.8279H62.6269H61.9958C61.9958 21.943 61.7465 22.9392 61.2567 23.8297L61.8097 24.1339ZM62.6269 20.8279H63.258V19.2306H62.6269H61.9958V20.8279H62.6269ZM62.6269 19.2306L62.2113 18.7557C61.7068 19.1971 61.0485 19.5283 60.2118 19.7318L60.361 20.345L60.5101 20.9582C61.506 20.716 62.3582 20.3043 63.0424 19.7056L62.6269 19.2306ZM60.361 20.345L60.2118 19.7318C59.351 19.9412 58.17 20.087 56.653 20.1604L56.6835 20.7908L56.714 21.4211C58.2678 21.3459 59.5384 21.1946 60.5101 20.9582L60.361 20.345ZM56.6835 20.7908L56.6448 20.1609C54.9911 20.2626 53.653 20.5833 52.7044 21.187L53.0432 21.7194L53.382 22.2518C54.0678 21.8154 55.1566 21.517 56.7223 21.4206L56.6835 20.7908ZM53.0432 21.7194L52.7044 21.187C51.6846 21.8359 51.1863 22.8416 51.1863 24.0967H51.8174H52.4485C52.4485 23.2221 52.7674 22.643 53.382 22.2518L53.0432 21.7194ZM72.5056 28.9629H71.8746V29.5843L72.4959 29.5939L72.5056 28.9629ZM72.5056 0.769096V0.138007H71.8746V0.769096H72.5056ZM74.9573 0.769096L75.5884 0.769927L75.5892 0.138007H74.9573V0.769096ZM74.9201 29L74.9104 29.631L75.5504 29.6409L75.5512 29.0008L74.9201 29ZM72.5056 28.9629H73.1367V0.769096H72.5056H71.8746V28.9629H72.5056ZM72.5056 0.769096V1.40019L74.9573 1.40019V0.769096V0.138007L72.5056 0.138007V0.769096ZM74.9573 0.769096L74.3262 0.768266L74.289 28.9992L74.9201 29L75.5512 29.0008L75.5884 0.769927L74.9573 0.769096ZM74.9201 29L74.9298 28.369L72.5154 28.3318L72.5056 28.9629L72.4959 29.5939L74.9104 29.631L74.9201 29ZM82.6944 10.427V9.79595H82.0633V10.427H82.6944ZM85.146 10.427H85.7771V9.79595H85.146V10.427ZM85.146 29V29.6311H85.7771V29H85.146ZM82.6944 29H82.0633V29.6311H82.6944V29ZM82.1743 2.77498L81.7281 2.32873L82.1743 2.77498ZM85.6289 2.77498L85.1827 3.22122L85.1827 3.22122L85.6289 2.77498ZM85.6289 6.22955L85.1827 5.7833L85.1827 5.7833L85.6289 6.22955ZM82.1743 6.22955L81.7281 6.6758L82.1743 6.22955ZM82.6944 10.427V11.0581L85.146 11.0581V10.427V9.79595H82.6944V10.427ZM85.146 10.427H84.5149V29H85.146H85.7771V10.427H85.146ZM85.146 29V28.3689H82.6944V29V29.6311H85.146V29ZM82.6944 29H83.3255V10.427H82.6944H82.0633V29H82.6944ZM81.4686 4.48369H82.0996C82.0996 3.98153 82.2691 3.57274 82.6206 3.22122L82.1743 2.77498L81.7281 2.32873C81.1386 2.91824 80.8375 3.6486 80.8375 4.48369H81.4686ZM82.1743 2.77498L82.6206 3.22122C82.9673 2.8745 83.3863 2.70029 83.9202 2.70029V2.0692V1.43812C83.0673 1.43812 82.3224 1.73443 81.7281 2.32873L82.1743 2.77498ZM83.9202 2.0692V2.70029C84.4223 2.70029 84.8311 2.8697 85.1827 3.22122L85.6289 2.77498L86.0751 2.32873C85.4856 1.73922 84.7553 1.43812 83.9202 1.43812V2.0692ZM85.6289 2.77498L85.1827 3.22122C85.5342 3.57274 85.7036 3.98153 85.7036 4.48369H86.3347H86.9658C86.9658 3.6486 86.6647 2.91824 86.0751 2.32873L85.6289 2.77498ZM86.3347 4.48369H85.7036C85.7036 5.01755 85.5294 5.43657 85.1827 5.7833L85.6289 6.22955L86.0751 6.6758C86.6695 6.08149 86.9658 5.33661 86.9658 4.48369H86.3347ZM85.6289 6.22955L85.1827 5.7833C84.8311 6.13482 84.4223 6.30423 83.9202 6.30423V6.93532V7.56641C84.7553 7.56641 85.4856 7.2653 86.0751 6.67579L85.6289 6.22955ZM83.9202 6.93532V6.30423C83.3863 6.30423 82.9673 6.13003 82.6206 5.7833L82.1743 6.22955L81.7281 6.6758C82.3224 7.2701 83.0673 7.56641 83.9202 7.56641V6.93532ZM82.1743 6.22955L82.6206 5.7833C82.2738 5.43657 82.0996 5.01755 82.0996 4.48369H81.4686H80.8375C80.8375 5.33661 81.1338 6.08149 81.7281 6.6758L82.1743 6.22955ZM95.452 29H94.8209V29.6311H95.452V29ZM95.452 12.6186H96.0831V11.9876H95.452V12.6186ZM90.9945 12.6186H90.3634V13.2497H90.9945V12.6186ZM90.9945 10.427V9.79595H90.3634V10.427H90.9945ZM95.452 10.427V11.0581H96.0831V10.427H95.452ZM95.452 4.59513V3.96404H94.8209V4.59513H95.452ZM97.9036 4.59513H98.5347V3.96404H97.9036V4.59513ZM97.9036 10.427H97.2725V11.0581H97.9036V10.427ZM103.624 10.427H104.255V9.79595H103.624V10.427ZM103.624 12.6186V13.2497H104.255V12.6186H103.624ZM97.9036 12.6186V11.9876H97.2742L97.2725 12.617L97.9036 12.6186ZM97.8664 26.8084L97.2354 26.8067L97.2337 27.4395H97.8664V26.8084ZM103.996 26.8084H104.627V26.1773H103.996V26.8084ZM103.996 29V29.6311H104.627V29H103.996ZM95.452 29H96.0831V12.6186H95.452H94.8209V29H95.452ZM95.452 12.6186V11.9876L90.9945 11.9876V12.6186V13.2497L95.452 13.2497V12.6186ZM90.9945 12.6186H91.6255V10.427H90.9945H90.3634V12.6186H90.9945ZM90.9945 10.427V11.0581L95.452 11.0581V10.427V9.79595H90.9945V10.427ZM95.452 10.427H96.0831V4.59513L95.452 4.59513H94.8209V10.427H95.452ZM95.452 4.59513V5.22622H97.9036V4.59513V3.96404L95.452 3.96404V4.59513ZM97.9036 4.59513H97.2725V10.427H97.9036H98.5347V4.59513H97.9036ZM97.9036 10.427V11.0581H103.624V10.427V9.79595L97.9036 9.79595V10.427ZM103.624 10.427H102.993V12.6186H103.624H104.255V10.427H103.624ZM103.624 12.6186V11.9876H97.9036V12.6186V13.2497H103.624V12.6186ZM97.9036 12.6186L97.2725 12.617L97.2354 26.8067L97.8664 26.8084L98.4975 26.81L98.5347 12.6203L97.9036 12.6186ZM97.8664 26.8084V27.4395L103.996 27.4395V26.8084V26.1773L97.8664 26.1773V26.8084ZM103.996 26.8084H103.364V29H103.996H104.627V26.8084H103.996ZM103.996 29V28.3689L95.452 28.3689V29V29.6311L103.996 29.6311V29ZM112.962 36.2435L112.383 35.9929L112.331 36.1128V36.2435H112.962ZM116.417 28.2571L116.996 28.5076L117.107 28.2519L116.992 27.9979L116.417 28.2571ZM108.468 10.6128H107.836V10.7484L107.892 10.872L108.468 10.6128ZM108.468 10.427V9.79595H107.836V10.427H108.468ZM111.291 10.427L111.87 10.1767L111.705 9.79595H111.291V10.427ZM116.974 23.5767L117.581 23.4047L117.57 23.3646L117.553 23.3263L116.974 23.5767ZM117.605 25.8055L116.998 25.9775L117.128 26.4365H117.605V25.8055ZM117.977 25.8055V26.4365H118.462L118.587 25.9681L117.977 25.8055ZM118.571 23.5767L117.989 23.3333L117.972 23.3727L117.961 23.4141L118.571 23.5767ZM124.069 10.427V9.79595H123.649L123.487 10.1836L124.069 10.427ZM126.818 10.427H127.449V9.79595H126.818V10.427ZM126.818 10.6128L127.396 10.8657L127.449 10.7448V10.6128H126.818ZM115.525 36.4292V37.0603H115.938L116.103 36.6821L115.525 36.4292ZM112.962 36.4292H112.331V37.0603H112.962V36.4292ZM112.962 36.2435L113.541 36.494L116.996 28.5076L116.417 28.2571L115.838 28.0065L112.383 35.9929L112.962 36.2435ZM116.417 28.2571L116.992 27.9979L109.043 10.3535L108.468 10.6128L107.892 10.872L115.841 28.5163L116.417 28.2571ZM108.468 10.6128H109.099V10.427H108.468H107.836V10.6128H108.468ZM108.468 10.427V11.0581H111.291V10.427V9.79595H108.468V10.427ZM111.291 10.427L110.711 10.6774L116.395 23.8271L116.974 23.5767L117.553 23.3263L111.87 10.1767L111.291 10.427ZM116.974 23.5767L116.367 23.7487L116.998 25.9775L117.605 25.8055L118.213 25.6334L117.581 23.4047L116.974 23.5767ZM117.605 25.8055V26.4365H117.977V25.8055V25.1744H117.605V25.8055ZM117.977 25.8055L118.587 25.9681L119.181 23.7393L118.571 23.5767L117.961 23.4141L117.367 25.6428L117.977 25.8055ZM118.571 23.5767L119.153 23.8201L124.651 10.6705L124.069 10.427L123.487 10.1836L117.989 23.3333L118.571 23.5767ZM124.069 10.427V11.0581H126.818V10.427V9.79595L124.069 9.79595V10.427ZM126.818 10.427H126.187V10.6128H126.818H127.449V10.427H126.818ZM126.818 10.6128L126.239 10.3599L114.947 36.1763L115.525 36.4292L116.103 36.6821L127.396 10.8657L126.818 10.6128ZM115.525 36.4292V35.7981H112.962V36.4292V37.0603H115.525V36.4292ZM112.962 36.4292H113.593V36.2435H112.962H112.331V36.4292H112.962Z" fill="white" mask="url(#path-1-outside-1_483_108)"/>
<mask id="path-3-outside-2_483_108" maskUnits="userSpaceOnUse" x="1" y="35.1992" width="93" height="28" fill="black">
<rect fill="white" x="1" y="35.1992" width="93" height="28"/>
<path d="M1.74315 36.7951H17.7801V39.0612H4.18356L4.18356 47.6724H16.7342L16.7342 49.9385H4.18356L4.18356 58.9331H18.4774V61.1992H1.74315L1.74315 36.7951ZM33.584 52.5183L32.5729 50.4266H32.2243L31.2133 52.5183L25.3563 61.1992H22.6718V61.0249L31.039 48.7531L23.0205 36.9694V36.7951H25.7049L31.4224 45.1971L32.4335 47.2889H32.7821L33.7931 45.1971L39.4758 36.7951H42.1602V36.9694L33.9674 48.9972L42.1602 61.0249V61.1992H39.4758L33.584 52.5183ZM56.1185 49.1715C57.6525 49.1715 58.9424 48.7183 59.9883 47.8118C61.0342 46.8822 61.5571 45.6503 61.5571 44.1164C61.5571 42.5824 61.0342 41.3622 59.9883 40.4557C58.9424 39.5261 57.6525 39.0612 56.1185 39.0612H49.8432V49.1715H56.1185ZM47.4028 36.7951H56.502C57.9198 36.7951 59.1981 37.1089 60.3369 37.7364C61.4758 38.3407 62.3706 39.2007 63.0214 40.3163C63.6722 41.4319 63.9976 42.6986 63.9976 44.1164C63.9976 45.5341 63.6722 46.8008 63.0214 47.9164C62.3706 49.032 61.4758 49.9036 60.3369 50.5311C59.2213 51.1354 57.943 51.4376 56.502 51.4376H49.8432L49.8432 61.1992H47.4028L47.4028 36.7951ZM80.4063 61.7222C78.0124 61.7222 75.8509 61.1644 73.9218 60.0487C72.0159 58.9099 70.5168 57.3759 69.4245 55.4468C68.3553 53.4945 67.8208 51.3446 67.8208 48.9972C67.8208 46.673 68.3553 44.5463 69.4245 42.6172C70.5168 40.6649 72.0159 39.1193 73.9218 37.9805C75.8509 36.8416 78.0124 36.2722 80.4063 36.2722C82.777 36.2722 84.9153 36.8416 86.8211 37.9805C88.7269 39.1193 90.2144 40.6649 91.2836 42.6172C92.3759 44.5696 92.9221 46.7078 92.9221 49.032C92.9221 51.3562 92.3759 53.4945 91.2836 55.4468C90.2144 57.3759 88.7269 58.9099 86.8211 60.0487C84.9153 61.1644 82.777 61.7222 80.4063 61.7222ZM70.3658 48.9972C70.3658 50.996 70.7841 52.7972 71.6208 54.4009C72.4808 55.9814 73.6661 57.2248 75.1769 58.1313C76.7108 59.0145 78.454 59.4561 80.4063 59.4561C82.3354 59.4561 84.0669 59.0145 85.6009 58.1313C87.1349 57.2248 88.3318 55.9814 89.1918 54.4009C90.0517 52.7972 90.4817 51.0076 90.4817 49.032C90.4817 47.0332 90.0517 45.232 89.1918 43.6283C88.3318 42.0246 87.1349 40.7811 85.6009 39.8979C84.0669 38.9915 82.3354 38.5383 80.4063 38.5383C78.454 38.5383 76.7108 38.9915 75.1769 39.8979C73.6661 40.7811 72.4808 42.0246 71.6208 43.6283C70.7841 45.2087 70.3658 46.9984 70.3658 48.9972Z"/>
</mask>
<path d="M1.74315 36.7951H17.7801V39.0612H4.18356L4.18356 47.6724H16.7342L16.7342 49.9385H4.18356L4.18356 58.9331H18.4774V61.1992H1.74315L1.74315 36.7951ZM33.584 52.5183L32.5729 50.4266H32.2243L31.2133 52.5183L25.3563 61.1992H22.6718V61.0249L31.039 48.7531L23.0205 36.9694V36.7951H25.7049L31.4224 45.1971L32.4335 47.2889H32.7821L33.7931 45.1971L39.4758 36.7951H42.1602V36.9694L33.9674 48.9972L42.1602 61.0249V61.1992H39.4758L33.584 52.5183ZM56.1185 49.1715C57.6525 49.1715 58.9424 48.7183 59.9883 47.8118C61.0342 46.8822 61.5571 45.6503 61.5571 44.1164C61.5571 42.5824 61.0342 41.3622 59.9883 40.4557C58.9424 39.5261 57.6525 39.0612 56.1185 39.0612H49.8432V49.1715H56.1185ZM47.4028 36.7951H56.502C57.9198 36.7951 59.1981 37.1089 60.3369 37.7364C61.4758 38.3407 62.3706 39.2007 63.0214 40.3163C63.6722 41.4319 63.9976 42.6986 63.9976 44.1164C63.9976 45.5341 63.6722 46.8008 63.0214 47.9164C62.3706 49.032 61.4758 49.9036 60.3369 50.5311C59.2213 51.1354 57.943 51.4376 56.502 51.4376H49.8432L49.8432 61.1992H47.4028L47.4028 36.7951ZM80.4063 61.7222C78.0124 61.7222 75.8509 61.1644 73.9218 60.0487C72.0159 58.9099 70.5168 57.3759 69.4245 55.4468C68.3553 53.4945 67.8208 51.3446 67.8208 48.9972C67.8208 46.673 68.3553 44.5463 69.4245 42.6172C70.5168 40.6649 72.0159 39.1193 73.9218 37.9805C75.8509 36.8416 78.0124 36.2722 80.4063 36.2722C82.777 36.2722 84.9153 36.8416 86.8211 37.9805C88.7269 39.1193 90.2144 40.6649 91.2836 42.6172C92.3759 44.5696 92.9221 46.7078 92.9221 49.032C92.9221 51.3562 92.3759 53.4945 91.2836 55.4468C90.2144 57.3759 88.7269 58.9099 86.8211 60.0487C84.9153 61.1644 82.777 61.7222 80.4063 61.7222ZM70.3658 48.9972C70.3658 50.996 70.7841 52.7972 71.6208 54.4009C72.4808 55.9814 73.6661 57.2248 75.1769 58.1313C76.7108 59.0145 78.454 59.4561 80.4063 59.4561C82.3354 59.4561 84.0669 59.0145 85.6009 58.1313C87.1349 57.2248 88.3318 55.9814 89.1918 54.4009C90.0517 52.7972 90.4817 51.0076 90.4817 49.032C90.4817 47.0332 90.0517 45.232 89.1918 43.6283C88.3318 42.0246 87.1349 40.7811 85.6009 39.8979C84.0669 38.9915 82.3354 38.5383 80.4063 38.5383C78.454 38.5383 76.7108 38.9915 75.1769 39.8979C73.6661 40.7811 72.4808 42.0246 71.6208 43.6283C70.7841 45.2087 70.3658 46.9984 70.3658 48.9972Z" fill="white"/>
<path d="M1.74315 36.7951L1.74315 36.2028H1.15085L1.15085 36.7951H1.74315ZM17.7801 36.7951H18.3724V36.2028H17.7801V36.7951ZM17.7801 39.0612V39.6535H18.3724V39.0612H17.7801ZM4.18356 39.0612V38.4689H3.59125L3.59125 39.0612H4.18356ZM4.18356 47.6724H3.59125V48.2647H4.18356V47.6724ZM16.7342 47.6724H17.3265V47.0801H16.7342V47.6724ZM16.7342 49.9385V50.5308H17.3265V49.9385H16.7342ZM4.18356 49.9385V49.3462H3.59125L3.59125 49.9385H4.18356ZM4.18356 58.9331H3.59125V59.5254H4.18356V58.9331ZM18.4774 58.9331H19.0697V58.3408H18.4774V58.9331ZM18.4774 61.1992V61.7915H19.0697V61.1992H18.4774ZM1.74315 61.1992H1.15085L1.15085 61.7915H1.74315L1.74315 61.1992ZM1.74315 36.7951V37.3874H17.7801V36.7951V36.2028H1.74315L1.74315 36.7951ZM17.7801 36.7951H17.1878V39.0612H17.7801H18.3724V36.7951H17.7801ZM17.7801 39.0612V38.4689H4.18356V39.0612V39.6535H17.7801V39.0612ZM4.18356 39.0612H3.59125L3.59125 47.6724H4.18356H4.77586L4.77586 39.0612H4.18356ZM4.18356 47.6724V48.2647H16.7342L16.7342 47.6724V47.0801H4.18356V47.6724ZM16.7342 47.6724H16.1419L16.1419 49.9385H16.7342H17.3265L17.3265 47.6724H16.7342ZM16.7342 49.9385V49.3462H4.18356V49.9385V50.5308H16.7342V49.9385ZM4.18356 49.9385H3.59125L3.59125 58.9331H4.18356H4.77586L4.77586 49.9385H4.18356ZM4.18356 58.9331V59.5254H18.4774V58.9331V58.3408H4.18356V58.9331ZM18.4774 58.9331H17.8851V61.1992H18.4774H19.0697V58.9331H18.4774ZM18.4774 61.1992V60.6069H1.74315V61.1992L1.74315 61.7915H18.4774V61.1992ZM1.74315 61.1992H2.33545L2.33545 36.7951H1.74315H1.15085L1.15085 61.1992H1.74315ZM33.584 52.5183L33.0507 52.7761L33.0695 52.8151L33.0939 52.851L33.584 52.5183ZM32.5729 50.4266L33.1062 50.1688L32.9445 49.8343H32.5729V50.4266ZM32.2243 50.4266V49.8343H31.8527L31.691 50.1688L32.2243 50.4266ZM31.2133 52.5183L31.7043 52.8496L31.728 52.8144L31.7465 52.7761L31.2133 52.5183ZM25.3563 61.1992V61.7915H25.6712L25.8473 61.5305L25.3563 61.1992ZM22.6718 61.1992H22.0795V61.7915H22.6718V61.1992ZM22.6718 61.0249L22.1825 60.6912L22.0795 60.8422V61.0249H22.6718ZM31.039 48.7531L31.5283 49.0868L31.7556 48.7535L31.5286 48.4199L31.039 48.7531ZM23.0205 36.9694H22.4282V37.1519L22.5308 37.3027L23.0205 36.9694ZM23.0205 36.7951V36.2028L22.4282 36.2028V36.7951H23.0205ZM25.7049 36.7951L26.1946 36.4619L26.0183 36.2028H25.7049V36.7951ZM31.4224 45.1971L31.9557 44.9394L31.9367 44.9L31.9121 44.8639L31.4224 45.1971ZM32.4335 47.2889L31.9002 47.5466L32.0619 47.8812H32.4335V47.2889ZM32.7821 47.2889V47.8812H33.1537L33.3154 47.5466L32.7821 47.2889ZM33.7931 45.1971L33.3025 44.8653L33.2785 44.9008L33.2599 44.9394L33.7931 45.1971ZM39.4758 36.7951V36.2028H39.1613L38.9852 36.4633L39.4758 36.7951ZM42.1602 36.7951H42.7526V36.2028H42.1602V36.7951ZM42.1602 36.9694L42.6498 37.3029L42.7526 37.152V36.9694H42.1602ZM33.9674 48.9972L33.4779 48.6637L33.2508 48.9972L33.4779 49.3306L33.9674 48.9972ZM42.1602 61.0249H42.7526V60.8423L42.6498 60.6915L42.1602 61.0249ZM42.1602 61.1992V61.7915H42.7526V61.1992H42.1602ZM39.4758 61.1992L38.9857 61.5318L39.162 61.7915H39.4758V61.1992ZM33.584 52.5183L34.1172 52.2606L33.1062 50.1688L32.5729 50.4266L32.0396 50.6843L33.0507 52.7761L33.584 52.5183ZM32.5729 50.4266V49.8343H32.2243V50.4266V51.0189H32.5729V50.4266ZM32.2243 50.4266L31.691 50.1688L30.68 52.2606L31.2133 52.5183L31.7465 52.7761L32.7576 50.6843L32.2243 50.4266ZM31.2133 52.5183L30.7223 52.1871L24.8653 60.8679L25.3563 61.1992L25.8473 61.5305L31.7043 52.8496L31.2133 52.5183ZM25.3563 61.1992V60.6069H22.6718V61.1992V61.7915H25.3563V61.1992ZM22.6718 61.1992H23.2641V61.0249H22.6718H22.0795V61.1992H22.6718ZM22.6718 61.0249L23.1612 61.3586L31.5283 49.0868L31.039 48.7531L30.5496 48.4195L22.1825 60.6912L22.6718 61.0249ZM31.039 48.7531L31.5286 48.4199L23.5102 36.6362L23.0205 36.9694L22.5308 37.3027L30.5493 49.0863L31.039 48.7531ZM23.0205 36.9694H23.6128V36.7951H23.0205H22.4282V36.9694H23.0205ZM23.0205 36.7951V37.3874H25.7049V36.7951V36.2028H23.0205V36.7951ZM25.7049 36.7951L25.2152 37.1284L30.9328 45.5303L31.4224 45.1971L31.9121 44.8639L26.1946 36.4619L25.7049 36.7951ZM31.4224 45.1971L30.8892 45.4549L31.9002 47.5466L32.4335 47.2889L32.9668 47.0311L31.9557 44.9394L31.4224 45.1971ZM32.4335 47.2889V47.8812H32.7821V47.2889V46.6966H32.4335V47.2889ZM32.7821 47.2889L33.3154 47.5466L34.3264 45.4549L33.7931 45.1971L33.2599 44.9394L32.2488 47.0311L32.7821 47.2889ZM33.7931 45.1971L34.2838 45.5289L39.9664 37.127L39.4758 36.7951L38.9852 36.4633L33.3025 44.8653L33.7931 45.1971ZM39.4758 36.7951V37.3874H42.1602V36.7951V36.2028H39.4758V36.7951ZM42.1602 36.7951H41.5679V36.9694H42.1602H42.7526V36.7951H42.1602ZM42.1602 36.9694L41.6707 36.636L33.4779 48.6637L33.9674 48.9972L34.457 49.3306L42.6498 37.3029L42.1602 36.9694ZM33.9674 48.9972L33.4779 49.3306L41.6707 61.3584L42.1602 61.0249L42.6498 60.6915L34.457 48.6637L33.9674 48.9972ZM42.1602 61.0249H41.5679V61.1992H42.1602H42.7526V61.0249H42.1602ZM42.1602 61.1992V60.6069H39.4758V61.1992V61.7915H42.1602V61.1992ZM39.4758 61.1992L39.9659 60.8666L34.074 52.1857L33.584 52.5183L33.0939 52.851L38.9857 61.5318L39.4758 61.1992ZM59.9883 47.8118L60.3763 48.2595L60.3818 48.2545L59.9883 47.8118ZM59.9883 40.4557L59.5948 40.8985L59.6004 40.9033L59.9883 40.4557ZM49.8432 39.0612V38.4689H49.2509V39.0612H49.8432ZM49.8432 49.1715H49.2509V49.7638H49.8432V49.1715ZM47.4028 36.7951V36.2028H46.8105V36.7951H47.4028ZM60.3369 37.7364L60.0511 38.2553L60.0593 38.2596L60.3369 37.7364ZM63.0214 40.3163L63.533 40.0178L63.533 40.0178L63.0214 40.3163ZM63.0214 47.9164L63.533 48.2149L63.0214 47.9164ZM60.3369 50.5311L60.619 51.052L60.6228 51.0499L60.3369 50.5311ZM49.8432 51.4376V50.8453H49.2509V51.4376H49.8432ZM49.8432 61.1992V61.7915H50.4355V61.1992H49.8432ZM47.4028 61.1992H46.8105V61.7915H47.4028V61.1992ZM56.1185 49.1715V49.7638C57.7784 49.7638 59.2108 49.2695 60.3762 48.2594L59.9883 47.8118L59.6004 47.3642C58.6741 48.167 57.5266 48.5792 56.1185 48.5792V49.1715ZM59.9883 47.8118L60.3818 48.2545C61.5672 47.2009 62.1494 45.8013 62.1494 44.1164H61.5571H60.9648C60.9648 45.4994 60.5012 46.5634 59.5948 47.3691L59.9883 47.8118ZM61.5571 44.1164H62.1494C62.1494 42.4315 61.5669 41.0401 60.3762 40.0081L59.9883 40.4557L59.6004 40.9033C60.5015 41.6843 60.9648 42.7333 60.9648 44.1164H61.5571ZM59.9883 40.4557L60.3818 40.013C59.2167 38.9774 57.7825 38.4689 56.1185 38.4689V39.0612V39.6535C57.5225 39.6535 58.6681 40.0747 59.5948 40.8984L59.9883 40.4557ZM56.1185 39.0612V38.4689H49.8432V39.0612V39.6535H56.1185V39.0612ZM49.8432 39.0612H49.2509V49.1715H49.8432H50.4355V39.0612H49.8432ZM49.8432 49.1715V49.7638H56.1185V49.1715V48.5792H49.8432V49.1715ZM47.4028 36.7951V37.3874H56.502V36.7951V36.2028H47.4028V36.7951ZM56.502 36.7951V37.3874C57.8291 37.3874 59.0076 37.6802 60.0511 38.2552L60.3369 37.7364L60.6228 37.2177C59.3886 36.5376 58.0105 36.2028 56.502 36.2028V36.7951ZM60.3369 37.7364L60.0593 38.2596C61.1006 38.8122 61.9144 39.5942 62.5098 40.6147L63.0214 40.3163L63.533 40.0178C62.8268 38.8072 61.851 37.8693 60.6146 37.2132L60.3369 37.7364ZM63.0214 40.3163L62.5098 40.6147C63.1026 41.6311 63.4052 42.7929 63.4052 44.1164L63.9976 44.1164H64.5899C64.5899 42.6043 64.2417 41.2327 63.533 40.0178L63.0214 40.3163ZM63.9976 44.1164L63.4052 44.1164C63.4052 45.4398 63.1026 46.6016 62.5098 47.618L63.0214 47.9164L63.533 48.2149C64.2417 47 64.5899 45.6284 64.5899 44.1164H63.9976ZM63.0214 47.9164L62.5098 47.618C61.9133 48.6404 61.0968 49.4362 60.0511 50.0124L60.3369 50.5311L60.6228 51.0499C61.8548 50.3711 62.8279 49.4236 63.533 48.2149L63.0214 47.9164ZM60.3369 50.5311L60.0548 50.0103C59.037 50.5617 57.858 50.8453 56.502 50.8453V51.4376V52.0299C58.028 52.0299 59.4056 51.7092 60.619 51.052L60.3369 50.5311ZM56.502 51.4376V50.8453H49.8432V51.4376V52.0299H56.502V51.4376ZM49.8432 51.4376H49.2509L49.2509 61.1992H49.8432H50.4355L50.4355 51.4376H49.8432ZM49.8432 61.1992V60.6069H47.4028V61.1992V61.7915H49.8432V61.1992ZM47.4028 61.1992H47.9951L47.9951 36.7951H47.4028H46.8105L46.8105 61.1992H47.4028ZM73.9218 60.0487L73.6179 60.5572L73.6253 60.5615L73.9218 60.0487ZM69.4245 55.4468L68.9049 55.7313L68.9091 55.7387L69.4245 55.4468ZM69.4245 42.6172L68.9076 42.328L68.9064 42.3301L69.4245 42.6172ZM73.9218 37.9805L73.6207 37.4704L73.618 37.472L73.9218 37.9805ZM86.8211 37.9805L86.5173 38.4889L86.5173 38.4889L86.8211 37.9805ZM91.2836 42.6172L90.764 42.9017L90.7667 42.9065L91.2836 42.6172ZM91.2836 55.4468L90.7667 55.1576L90.7655 55.1597L91.2836 55.4468ZM86.8211 60.0487L87.1203 60.5599L87.1249 60.5572L86.8211 60.0487ZM71.6208 54.4009L71.0956 54.675L71.1006 54.684L71.6208 54.4009ZM75.1769 58.1313L74.8721 58.6393L74.8813 58.6446L75.1769 58.1313ZM85.6009 58.1313L85.8965 58.6446L85.9022 58.6412L85.6009 58.1313ZM89.1918 54.4009L89.7121 54.684L89.7138 54.6808L89.1918 54.4009ZM89.1918 43.6283L88.6698 43.9082L88.6698 43.9082L89.1918 43.6283ZM85.6009 39.8979L85.2996 40.4079L85.3054 40.4112L85.6009 39.8979ZM75.1769 39.8979L75.4758 40.4093L75.4782 40.4079L75.1769 39.8979ZM71.6208 43.6283L71.0988 43.3484L71.0974 43.3511L71.6208 43.6283ZM80.4063 61.7222V61.1299C78.1085 61.1299 76.0506 60.5956 74.2183 59.536L73.9218 60.0487L73.6253 60.5615C75.6512 61.7331 77.9163 62.3145 80.4063 62.3145V61.7222ZM73.9218 60.0487L74.2256 59.5403C72.4077 58.454 70.9816 56.9946 69.9399 55.155L69.4245 55.4468L68.9091 55.7387C70.0521 57.7572 71.6242 59.3658 73.618 60.5572L73.9218 60.0487ZM69.4245 55.4468L69.944 55.1623C68.9252 53.302 68.4131 51.2508 68.4131 48.9972H67.8208H67.2285C67.2285 51.4384 67.7854 53.687 68.905 55.7313L69.4245 55.4468ZM67.8208 48.9972H68.4131C68.4131 46.7678 68.9247 44.7408 69.9425 42.9044L69.4245 42.6172L68.9064 42.3301C67.7859 44.3518 67.2285 46.5781 67.2285 48.9972H67.8208ZM69.4245 42.6172L69.9414 42.9065C70.9835 41.0439 72.4095 39.5742 74.2256 38.4889L73.9218 37.9805L73.618 37.472C71.6224 38.6645 70.0502 40.286 68.9076 42.328L69.4245 42.6172ZM73.9218 37.9805L74.2229 38.4905C76.0545 37.4092 78.1108 36.8645 80.4063 36.8645V36.2722V35.6799C77.914 35.6799 75.6473 36.274 73.6207 37.4704L73.9218 37.9805ZM80.4063 36.2722V36.8645C82.6775 36.8645 84.7095 37.4087 86.5173 38.4889L86.8211 37.9805L87.1249 37.472C85.121 36.2745 82.8764 35.6799 80.4063 35.6799V36.2722ZM86.8211 37.9805L86.5173 38.4889C88.3323 39.5735 89.7455 41.0417 90.7641 42.9017L91.2836 42.6172L91.8031 42.3328C90.6834 40.2882 89.1216 38.6651 87.1249 37.472L86.8211 37.9805ZM91.2836 42.6172L90.7667 42.9065C91.8076 44.7669 92.3298 46.805 92.3298 49.032H92.9221H93.5144C93.5144 46.6107 92.9442 44.3722 91.8005 42.328L91.2836 42.6172ZM92.9221 49.032H92.3298C92.3298 51.2591 91.8076 53.2972 90.7667 55.1576L91.2836 55.4468L91.8005 55.736C92.9442 53.6918 93.5144 51.4534 93.5144 49.032H92.9221ZM91.2836 55.4468L90.7655 55.1597C89.7474 56.9968 88.3341 58.4547 86.5173 59.5403L86.8211 60.0487L87.1249 60.5572C89.1198 59.3651 90.6815 57.755 91.8016 55.7339L91.2836 55.4468ZM86.8211 60.0487L86.5219 59.5376C84.7135 60.5962 82.6798 61.1299 80.4063 61.1299V61.7222V62.3145C82.8742 62.3145 85.117 61.7326 87.1203 60.5599L86.8211 60.0487ZM70.3658 48.9972H69.7735C69.7735 51.0812 70.2104 52.978 71.0957 54.6749L71.6208 54.4009L72.146 54.127C71.3579 52.6164 70.9581 50.9108 70.9581 48.9972H70.3658ZM71.6208 54.4009L71.1006 54.684C72.0099 56.3552 73.2688 57.6772 74.8721 58.6392L75.1769 58.1313L75.4816 57.6234C74.0635 56.7725 72.9517 55.6076 72.1411 54.1178L71.6208 54.4009ZM75.1769 58.1313L74.8813 58.6446C76.5142 59.5847 78.3612 60.0484 80.4063 60.0484V59.4561V58.8638C78.5468 58.8638 76.9074 58.4442 75.4724 57.618L75.1769 58.1313ZM80.4063 59.4561V60.0484C82.4295 60.0484 84.2646 59.5841 85.8964 58.6446L85.6009 58.1313L85.3054 57.618C83.8692 58.4448 82.2413 58.8638 80.4063 58.8638V59.4561ZM85.6009 58.1313L85.9022 58.6412C87.5293 57.6798 88.8015 56.3575 89.7121 54.684L89.1918 54.4009L88.6715 54.1178C87.8622 55.6053 86.7405 56.7699 85.2996 57.6213L85.6009 58.1313ZM89.1918 54.4009L89.7138 54.6808C90.6238 52.9838 91.074 51.0967 91.074 49.032H90.4817H89.8894C89.8894 50.9185 89.4797 52.6107 88.6698 54.121L89.1918 54.4009ZM90.4817 49.032H91.074C91.074 46.9454 90.6243 45.0464 89.7138 43.3484L89.1918 43.6283L88.6698 43.9082C89.4792 45.4175 89.8894 47.1211 89.8894 49.032H90.4817ZM89.1918 43.6283L89.7138 43.3484C88.8031 41.6501 87.529 40.3246 85.8964 39.3846L85.6009 39.8979L85.3054 40.4112C86.7408 41.2377 87.8605 42.399 88.6698 43.9082L89.1918 43.6283ZM85.6009 39.8979L85.9022 39.388C84.2695 38.4232 82.4323 37.946 80.4063 37.946V38.5383V39.1306C82.2385 39.1306 83.8644 39.5598 85.2996 40.4079L85.6009 39.8979ZM80.4063 38.5383V37.946C78.3584 37.946 76.5094 38.4226 74.8755 39.388L75.1769 39.8979L75.4782 40.4079C76.9123 39.5604 78.5495 39.1306 80.4063 39.1306V38.5383ZM75.1769 39.8979L74.8779 39.3866C73.2691 40.3272 72.0082 41.6525 71.0988 43.3484L71.6208 43.6283L72.1428 43.9082C72.9533 42.3967 74.0632 41.2351 75.4758 40.4093L75.1769 39.8979ZM71.6208 43.6283L71.0974 43.3511C70.2103 45.0266 69.7735 46.9133 69.7735 48.9972H70.3658H70.9581C70.9581 47.0834 71.3579 45.3908 72.1443 43.9054L71.6208 43.6283Z" fill="white" mask="url(#path-3-outside-2_483_108)"/>
<path d="M201.254 3.01563L153.482 3.01563V14.9285L183.682 14.9285L153.481 38.8314H137.989C132.691 38.8314 127.548 40.619 123.393 43.9046L99.5703 62.7443L123.269 62.7443L153.508 38.8314L169 38.8314C174.298 38.8314 179.441 37.0438 183.596 33.7582L201.271 19.7604V38.8314L213.184 38.8314V3.01563L201.254 3.01563Z" fill="white"/>
<path d="M189.359 47.8349V62.7489H201.272V38.8359H198.358C193.388 38.8359 189.359 42.8647 189.359 47.8349Z" fill="white"/>
</svg>
